<?xml version="1.0" encoding="UTF-8"?>
<svg xmlns="http://www.w3.org/2000/svg" viewBox="0 0 1700 1640" font-family="Noto Sans SC">
  <defs>
    <marker id="arrow" markerWidth="12" markerHeight="12" refX="9" refY="4"
            orient="auto" markerUnits="strokeWidth"><path d="M0 0 L10 4 L0 8 z"/></marker>
    <marker id="arrowW" markerWidth="12" markerHeight="12" refX="9" refY="4"
            orient="auto" markerUnits="strokeWidth"><path d="M0 0 L10 4 L0 8 z" fill="#F61B27"/></marker>
  </defs>

  <rect width="1700" height="1640" fill="#E4D2C4"/>

  <text x="80" y="92" font-size="44" font-weight="700" fill="#1F1A14" letter-spacing="2">决策流程 · LangGraph Agent</text>
  <text x="80" y="128" font-size="18" font-weight="400" fill="#1F1A14">classify → query_expand → retrieve / web → relevance_check → build_prompt → generate · SSE 流式 · 含 KB→Web 兜底与 confidence gate</text>
  <line x1="80" y1="150" x2="1620" y2="150" stroke="#1F1A14" stroke-width="2"/>

  <!-- ============== INPUT BLOCK ============== -->
  <text x="80" y="200" font-size="18" font-weight="700" fill="#1F1A14" letter-spacing="3">输入 · 请求上下文</text>

  <rect x="80" y="220" width="280" height="110" fill="#FFFFFF" stroke="#1F1A14" stroke-width="2" rx="4"/>
  <text x="220" y="252" font-size="18" font-weight="700" fill="#1F1A14" text-anchor="middle">ChatRequest</text>
  <text x="220" y="278" font-size="13" fill="#1F1A14" text-anchor="middle">question · history</text>
  <text x="220" y="300" font-size="13" fill="#1F1A14" text-anchor="middle">knowledge_base_id</text>
  <text x="220" y="320" font-size="12" fill="#1F1A14" text-anchor="middle" font-style="italic">可选 enable_web</text>

  <rect x="400" y="220" width="280" height="110" fill="#FFFFFF" stroke="#1F1A14" stroke-width="2" rx="4"/>
  <text x="540" y="252" font-size="18" font-weight="700" fill="#1F1A14" text-anchor="middle">历史会话</text>
  <text x="540" y="278" font-size="13" fill="#1F1A14" text-anchor="middle">最近 6 条原样保留</text>
  <text x="540" y="300" font-size="13" fill="#1F1A14" text-anchor="middle">早期 turns 压缩成 summary</text>
  <text x="540" y="320" font-size="12" fill="#1F1A14" text-anchor="middle" font-style="italic">SUMMARY_KEEP_RECENT=6</text>

  <rect x="720" y="220" width="280" height="110" fill="#FFFFFF" stroke="#1F1A14" stroke-width="2" rx="4"/>
  <text x="860" y="252" font-size="18" font-weight="700" fill="#1F1A14" text-anchor="middle">KB 元数据</text>
  <text x="860" y="278" font-size="13" fill="#1F1A14" text-anchor="middle">collection_name</text>
  <text x="860" y="300" font-size="13" fill="#1F1A14" text-anchor="middle">embedding_model / dim</text>
  <text x="860" y="320" font-size="12" fill="#1F1A14" text-anchor="middle" font-style="italic">未选 KB → intent=direct</text>

  <rect x="1040" y="220" width="280" height="110" fill="#FFFFFF" stroke="#1F1A14" stroke-width="2" rx="4"/>
  <text x="1180" y="252" font-size="18" font-weight="700" fill="#1F1A14" text-anchor="middle">外部开关</text>
  <text x="1180" y="278" font-size="13" fill="#1F1A14" text-anchor="middle">payload.enable_web</text>
  <text x="1180" y="300" font-size="13" fill="#1F1A14" text-anchor="middle">settings.enable_web_search</text>
  <text x="1180" y="320" font-size="12" fill="#1F1A14" text-anchor="middle" font-style="italic">+ enable_kb_web_fallback</text>

  <rect x="1360" y="220" width="260" height="110" fill="#F61B27" rx="4"/>
  <text x="1490" y="252" font-size="18" font-weight="700" fill="#FFFFFF" text-anchor="middle">兜底配置</text>
  <text x="1490" y="278" font-size="13" fill="#FFFFFF" text-anchor="middle">enable_kb_web_fallback</text>
  <text x="1490" y="300" font-size="13" fill="#FFFFFF" text-anchor="middle">enable_relevance_check</text>
  <text x="1490" y="320" font-size="12" fill="#FFFFFF" text-anchor="middle" font-style="italic">关闭 → KB 空直接拒</text>

  <!-- ============== CLASSIFY NODE ============== -->
  <text x="80" y="385" font-size="18" font-weight="700" fill="#1F1A14" letter-spacing="3">意图分类 · classify</text>

  <rect x="560" y="400" width="520" height="160" fill="#044D99" rx="6"/>
  <text x="820" y="438" font-size="26" font-weight="700" fill="#FFFFFF" text-anchor="middle">classify 节点</text>
  <text x="820" y="468" font-size="14" fill="#FFFFFF" text-anchor="middle">LLM 单次 JSON 路由：{intent, reason}</text>
  <text x="820" y="494" font-size="13" fill="#FFFFFF" text-anchor="middle">CLASSIFY_PROMPT · temperature = 0</text>
  <text x="820" y="520" font-size="12" fill="#FFFFFF" text-anchor="middle" font-style="italic">失败 → 启发式 fallback（关键词命中 web/direct）</text>
  <text x="820" y="542" font-size="12" fill="#FFFFFF" text-anchor="middle" font-style="italic">仍未选 KB → intent=direct</text>

  <!-- arrows from input to classify -->
  <line x1="220" y1="330" x2="640" y2="398" stroke="#1F1A14" stroke-width="2" marker-end="url(#arrow)"/>
  <line x1="540" y1="330" x2="720" y2="398" stroke="#1F1A14" stroke-width="2" marker-end="url(#arrow)"/>
  <line x1="860" y1="330" x2="820" y2="398" stroke="#1F1A14" stroke-width="2" marker-end="url(#arrow)"/>
  <line x1="1180" y1="330" x2="1000" y2="398" stroke="#1F1A14" stroke-width="2" marker-end="url(#arrow)"/>
  <line x1="1490" y1="330" x2="1000" y2="398" stroke="#1F1A14" stroke-width="2" marker-end="url(#arrow)"/>

  <!-- ============== ROUTING AFTER CLASSIFY ============== -->
  <text x="80" y="610" font-size="18" font-weight="700" fill="#1F1A14" letter-spacing="3">条件路由 · _route_after_classify</text>

  <rect x="80" y="630" width="280" height="100" fill="#FFFFFF" stroke="#044D99" stroke-width="3" rx="4"/>
  <text x="220" y="662" font-size="20" font-weight="700" fill="#044D99" text-anchor="middle">intent = "rag"</text>
  <text x="220" y="688" font-size="13" fill="#1F1A14" text-anchor="middle">本地知识库问答</text>
  <text x="220" y="710" font-size="12" fill="#1F1A14" text-anchor="middle" font-style="italic">→ query_expand</text>

  <rect x="400" y="630" width="280" height="100" fill="#FFFFFF" stroke="#044D99" stroke-width="3" rx="4"/>
  <text x="540" y="662" font-size="20" font-weight="700" fill="#044D99" text-anchor="middle">intent = "web"</text>
  <text x="540" y="688" font-size="13" fill="#1F1A14" text-anchor="middle">需要联网新鲜信息</text>
  <text x="540" y="710" font-size="12" fill="#1F1A14" text-anchor="middle" font-style="italic">→ web_search（直走）</text>

  <rect x="720" y="630" width="280" height="100" fill="#FFFFFF" stroke="#044D99" stroke-width="3" rx="4"/>
  <text x="860" y="662" font-size="20" font-weight="700" fill="#044D99" text-anchor="middle">intent = "direct"</text>
  <text x="860" y="688" font-size="13" fill="#1F1A14" text-anchor="middle">闲聊 / 通用知识</text>
  <text x="860" y="710" font-size="12" fill="#1F1A14" text-anchor="middle" font-style="italic">→ direct_answer</text>

  <rect x="1040" y="630" width="280" height="100" fill="#FFFFFF" stroke="#044D99" stroke-width="3" rx="4"/>
  <text x="1180" y="662" font-size="20" font-weight="700" fill="#044D99" text-anchor="middle">intent = "hybrid"</text>
  <text x="1180" y="688" font-size="13" fill="#1F1A14" text-anchor="middle">本地 + 联网融合</text>
  <text x="1180" y="710" font-size="12" fill="#1F1A14" text-anchor="middle" font-style="italic">→ query_expand</text>

  <!-- arrows from classify to routes -->
  <line x1="700" y1="560" x2="220" y2="628" stroke="#1F1A14" stroke-width="3" marker-end="url(#arrow)"/>
  <line x1="780" y1="560" x2="540" y2="628" stroke="#1F1A14" stroke-width="3" marker-end="url(#arrow)"/>
  <line x1="860" y1="560" x2="860" y2="628" stroke="#1F1A14" stroke-width="3" marker-end="url(#arrow)"/>
  <line x1="940" y1="560" x2="1180" y2="628" stroke="#1F1A14" stroke-width="3" marker-end="url(#arrow)"/>

  <!-- ============== EXECUTE NODES (ROW) ============== -->
  <text x="80" y="775" font-size="18" font-weight="700" fill="#1F1A14" letter-spacing="3">执行节点</text>

  <!-- query_expand (NEW) -->
  <rect x="80" y="795" width="220" height="170" fill="#04B24F" rx="6"/>
  <text x="190" y="828" font-size="18" font-weight="700" fill="#FFFFFF" text-anchor="middle">query_expand</text>
  <text x="190" y="854" font-size="12" fill="#FFFFFF" text-anchor="middle">multi_query / HyDE</text>
  <text x="190" y="876" font-size="12" fill="#FFFFFF" text-anchor="middle">生成 3 个等价改写</text>
  <text x="190" y="898" font-size="12" fill="#FFFFFF" text-anchor="middle">失败 → 退回 [question]</text>
  <text x="190" y="924" font-size="12" fill="#FFFFFF" text-anchor="middle" font-style="italic">→ retrieve</text>
  <text x="190" y="946" font-size="12" fill="#FFFFFF" text-anchor="middle" font-style="italic">state.queries: list[str]</text>

  <!-- retrieve -->
  <rect x="320" y="795" width="280" height="170" fill="#04B24F" rx="6"/>
  <text x="460" y="828" font-size="20" font-weight="700" fill="#FFFFFF" text-anchor="middle">retrieve</text>
  <text x="460" y="854" font-size="12" fill="#FFFFFF" text-anchor="middle">HybridRetriever.retrieve()</text>
  <text x="460" y="876" font-size="12" fill="#FFFFFF" text-anchor="middle">向量+BM25 并行 → RRF → Rerank</text>
  <text x="460" y="898" font-size="12" fill="#FFFFFF" text-anchor="middle">rerank_top_k=20 → final_top_k=5</text>
  <text x="460" y="924" font-size="12" fill="#FFFFFF" text-anchor="middle" font-style="italic">state.chunks · used_rag</text>
  <text x="460" y="946" font-size="12" fill="#FFFFFF" text-anchor="middle" font-style="italic">+ doc-level soft boost</text>

  <!-- web_search -->
  <rect x="620" y="795" width="280" height="170" fill="#04B24F" rx="6"/>
  <text x="760" y="828" font-size="20" font-weight="700" fill="#FFFFFF" text-anchor="middle">web_search</text>
  <text x="760" y="854" font-size="12" fill="#FFFFFF" text-anchor="middle">WebSearchFactory.get()</text>
  <text x="760" y="876" font-size="12" fill="#FFFFFF" text-anchor="middle">Tavily 优先 / DDG 兜底</text>
  <text x="760" y="898" font-size="12" fill="#FFFFFF" text-anchor="middle">max_web_results · to_thread</text>
  <text x="760" y="924" font-size="12" fill="#FFFFFF" text-anchor="middle" font-style="italic">state.web_results</text>
  <text x="760" y="946" font-size="12" fill="#FFFFFF" text-anchor="middle" font-style="italic">无 Key 或失败 → []</text>

  <!-- relevance_check (NEW) -->
  <rect x="920" y="795" width="280" height="170" fill="#F2A03B" rx="6"/>
  <text x="1060" y="828" font-size="20" font-weight="700" fill="#FFFFFF" text-anchor="middle">relevance_check</text>
  <text x="1060" y="854" font-size="12" fill="#FFFFFF" text-anchor="middle">Self-RAG: LLM 给 chunk 打分</text>
  <text x="1060" y="876" font-size="12" fill="#FFFFFF" text-anchor="middle">RELEVANCE_CHECK_PROMPT</text>
  <text x="1060" y="898" font-size="12" fill="#FFFFFF" text-anchor="middle">max 10 个候选</text>
  <text x="1060" y="924" font-size="12" fill="#FFFFFF" text-anchor="middle" font-style="italic">全部不相关 → 清空 chunks</text>
  <text x="1060" y="946" font-size="12" fill="#FFFFFF" text-anchor="middle" font-style="italic">触发 KB→Web 兜底</text>

  <!-- direct_answer -->
  <rect x="1220" y="795" width="380" height="170" fill="#04B24F" rx="6"/>
  <text x="1410" y="828" font-size="20" font-weight="700" fill="#FFFFFF" text-anchor="middle">direct_answer</text>
  <text x="1410" y="854" font-size="12" fill="#FFFFFF" text-anchor="middle">ANSWER_DIRECT_PROMPT</text>
  <text x="1410" y="876" font-size="12" fill="#FFFFFF" text-anchor="middle">纯 LLM 回答，无任何外部引用</text>
  <text x="1410" y="898" font-size="12" fill="#FFFFFF" text-anchor="middle">messages = [system + history + user]</text>
  <text x="1410" y="924" font-size="12" fill="#FFFFFF" text-anchor="middle" font-style="italic">state.sources = []</text>
  <text x="1410" y="946" font-size="12" fill="#FFFFFF" text-anchor="middle" font-style="italic">直接 → generate</text>

  <!-- arrows: routes to nodes -->
  <line x1="220" y1="730" x2="190" y2="793" stroke="#1F1A14" stroke-width="3" marker-end="url(#arrow)"/>
  <line x1="540" y1="730" x2="760" y2="793" stroke="#1F1A14" stroke-width="3" marker-end="url(#arrow)"/>
  <line x1="860" y1="730" x2="1410" y2="793" stroke="#1F1A14" stroke-width="3" marker-end="url(#arrow)"/>
  <line x1="1180" y1="730" x2="190" y2="793" stroke="#1F1A14" stroke-width="3" marker-end="url(#arrow)"/>
  <!-- query_expand -> retrieve -->
  <line x1="300" y1="880" x2="318" y2="880" stroke="#1F1A14" stroke-width="3" marker-end="url(#arrow)"/>

  <!-- ============== ROUTING AFTER RETRIEVE / WEB / RELEVANCE ============== -->
  <text x="80" y="1015" font-size="18" font-weight="700" fill="#1F1A14" letter-spacing="3">条件路由 · _route_after_retrieve / _web / _relevance_check</text>

  <!-- retrieve -> 3-way -->
  <rect x="80" y="1035" width="280" height="120" fill="#FFFFFF" stroke="#F61B27" stroke-width="3" rx="4"/>
  <text x="220" y="1067" font-size="18" font-weight="700" fill="#F61B27" text-anchor="middle">retrieve 之后</text>
  <text x="220" y="1093" font-size="13" fill="#1F1A14" text-anchor="middle">hybrid → web_then_relevance</text>
  <text x="220" y="1115" font-size="13" fill="#1F1A14" text-anchor="middle">rag + KB 空 + fallback → web_fallback</text>
  <text x="220" y="1137" font-size="12" fill="#1F1A14" text-anchor="middle" font-style="italic">其他 → relevance_check</text>

  <!-- web_search -> 2-way -->
  <rect x="400" y="1035" width="280" height="120" fill="#FFFFFF" stroke="#F61B27" stroke-width="3" rx="4"/>
  <text x="540" y="1067" font-size="18" font-weight="700" fill="#F61B27" text-anchor="middle">web_search 之后</text>
  <text x="540" y="1093" font-size="13" fill="#1F1A14" text-anchor="middle">hybrid + KB 有 → relevance_check</text>
  <text x="540" y="1115" font-size="13" fill="#1F1A14" text-anchor="middle">fallback / pure-web → build_prompt</text>
  <text x="540" y="1137" font-size="12" fill="#1F1A14" text-anchor="middle" font-style="italic">跳过 relevance_check</text>

  <!-- relevance_check -> 2-way (NEW) -->
  <rect x="720" y="1035" width="280" height="120" fill="#FFFFFF" stroke="#F61B27" stroke-width="3" rx="4"/>
  <text x="860" y="1067" font-size="18" font-weight="700" fill="#F61B27" text-anchor="middle">relevance 之后</text>
  <text x="860" y="1093" font-size="13" fill="#1F1A14" text-anchor="middle">chunks 清空 + rag + fallback → web</text>
  <text x="860" y="1115" font-size="13" fill="#1F1A14" text-anchor="middle">其他 → build_prompt</text>
  <text x="860" y="1137" font-size="12" fill="#1F1A14" text-anchor="middle" font-style="italic">hybrid 不触发（避免死循环）</text>

  <!-- arrows: nodes to routers -->
  <line x1="460" y1="965" x2="220" y2="1033" stroke="#1F1A14" stroke-width="3" marker-end="url(#arrow)"/>
  <line x1="760" y1="965" x2="540" y2="1033" stroke="#1F1A14" stroke-width="3" marker-end="url(#arrow)"/>
  <line x1="1060" y1="965" x2="860" y2="1033" stroke="#1F1A14" stroke-width="3" marker-end="url(#arrow)"/>

  <!-- ============== BUILD_PROMPT + GENERATE ============== -->
  <text x="80" y="1205" font-size="18" font-weight="700" fill="#1F1A14" letter-spacing="3">汇聚 · 生成 · 输出</text>

  <!-- build_prompt with confidence gate -->
  <rect x="80" y="1225" width="540" height="160" fill="#044D99" rx="6"/>
  <text x="350" y="1257" font-size="20" font-weight="700" fill="#FFFFFF" text-anchor="middle">build_prompt</text>
  <text x="350" y="1283" font-size="13" fill="#FFFFFF" text-anchor="middle">按 effective_intent 选模板：</text>
  <text x="350" y="1305" font-size="13" fill="#FFFFFF" text-anchor="middle">WITH_CONTEXT · WEB · HYBRID</text>
  <text x="350" y="1327" font-size="13" fill="#FFFFFF" text-anchor="middle">+ summary system msg · 最近 6 条历史</text>
  <text x="350" y="1353" font-size="12" fill="#FFFFFF" text-anchor="middle" font-style="italic">[n] 编号引用</text>

  <!-- confidence gate sub-block -->
  <rect x="100" y="1320" width="220" height="55" fill="#F61B27" rx="3"/>
  <text x="210" y="1342" font-size="14" font-weight="700" fill="#FFFFFF" text-anchor="middle">CONFIDENCE GATE</text>
  <text x="210" y="1362" font-size="11" fill="#FFFFFF" text-anchor="middle">KB+web 都空 → refused=True</text>
  <text x="210" y="1375" font-size="11" fill="#FFFFFF" text-anchor="middle">ANSWER_REFUSE_PROMPT</text>

  <!-- generate -->
  <rect x="660" y="1225" width="320" height="160" fill="#044D99" rx="6"/>
  <text x="820" y="1257" font-size="20" font-weight="700" fill="#FFFFFF" text-anchor="middle">generate</text>
  <text x="820" y="1283" font-size="13" fill="#FFFFFF" text-anchor="middle">LLMFactory.stream_chat()</text>
  <text x="820" y="1305" font-size="13" fill="#FFFFFF" text-anchor="middle">逐 token yield</text>
  <text x="820" y="1327" font-size="13" fill="#FFFFFF" text-anchor="middle">_build_sources 拼装引用</text>
  <text x="820" y="1353" font-size="12" fill="#FFFFFF" text-anchor="middle" font-style="italic">refused=True → sources=[]</text>

  <!-- refused shortcut (NEW) -->
  <rect x="660" y="1400" width="320" height="60" fill="#F61B27" rx="3"/>
  <text x="820" y="1422" font-size="14" font-weight="700" fill="#FFFFFF" text-anchor="middle">refused 短路</text>
  <text x="820" y="1444" font-size="11" fill="#FFFFFF" text-anchor="middle">astream 跳过 LLM 调用</text>
  <text x="820" y="1456" font-size="11" fill="#FFFFFF" text-anchor="middle">发固定 token + meta.refused=true</text>

  <!-- direct_arrow -->
  <rect x="1020" y="1225" width="320" height="160" fill="#044D99" rx="6"/>
  <text x="1180" y="1257" font-size="20" font-weight="700" fill="#FFFFFF" text-anchor="middle">direct → END</text>
  <text x="1180" y="1283" font-size="13" fill="#FFFFFF" text-anchor="middle">stream → final → end</text>
  <text x="1180" y="1305" font-size="13" fill="#FFFFFF" text-anchor="middle">sources=[]  · intent=direct</text>
  <text x="1180" y="1327" font-size="13" fill="#FFFFFF" text-anchor="middle">不走 retrieve / web</text>
  <text x="1180" y="1353" font-size="12" fill="#FFFFFF" text-anchor="middle" font-style="italic">不受 confidence gate 影响</text>

  <!-- arrows: routers -> build_prompt / direct -->
  <line x1="220" y1="1155" x2="280" y2="1223" stroke="#1F1A14" stroke-width="3" marker-end="url(#arrow)"/>
  <line x1="540" y1="1155" x2="420" y2="1223" stroke="#1F1A14" stroke-width="3" marker-end="url(#arrow)"/>
  <line x1="860" y1="1155" x2="560" y2="1223" stroke="#1F1A14" stroke-width="3" marker-end="url(#arrow)"/>
  <!-- hybrid 第二跳: retrieve -> web_search -->
  <polyline points="460,965 460,1000 760,1000 760,965" fill="none" stroke="#1F1A14" stroke-width="3" marker-end="url(#arrow)"/>
  <text x="610" y="995" font-size="12" font-weight="700" fill="#1F1A14" text-anchor="middle">hybrid 跳 web</text>
  <!-- KB→Web fallback (NEW, red dashed style via solid red) -->
  <polyline points="220,1155 220,1185 760,1185 760,1155" fill="none" stroke="#F61B27" stroke-width="3" marker-end="url(#arrowW)"/>
  <text x="490" y="1180" font-size="12" font-weight="700" fill="#F61B27" text-anchor="middle">KB→Web 兜底</text>
  <!-- relevance 后再 fallback (NEW) -->
  <polyline points="860,1155 860,1200 760,1200 760,1155" fill="none" stroke="#F61B27" stroke-width="3" marker-end="url(#arrowW)"/>
  <text x="800" y="1195" font-size="12" font-weight="700" fill="#F61B27" text-anchor="middle">relevance 后</text>

  <!-- build_prompt -> generate -->
  <line x1="620" y1="1305" x2="658" y2="1305" stroke="#1F1A14" stroke-width="3" marker-end="url(#arrow)"/>
  <!-- generate -> refused shortcut (vertical) -->
  <line x1="820" y1="1385" x2="820" y2="1398" stroke="#F61B27" stroke-width="3" marker-end="url(#arrowW)"/>
  <!-- direct_answer -> END -->
  <line x1="1410" y1="965" x2="1180" y2="1223" stroke="#1F1A14" stroke-width="3" marker-end="url(#arrow)"/>

  <!-- ============== SSE EVENT TIMELINE ============== -->
  <text x="80" y="1510" font-size="16" font-weight="700" fill="#1F1A14" letter-spacing="3">SSE 事件流（chat.py · astream）</text>

  <rect x="80" y="1530" width="140" height="32" fill="#FFFFFF" stroke="#1F1A14" stroke-width="2" rx="4"/>
  <text x="150" y="1551" font-size="13" fill="#1F1A14" text-anchor="middle">intent</text>
  <rect x="230" y="1530" width="140" height="32" fill="#FFFFFF" stroke="#1F1A14" stroke-width="2" rx="4"/>
  <text x="300" y="1551" font-size="13" fill="#1F1A14" text-anchor="middle">sources</text>
  <rect x="380" y="1530" width="170" height="32" fill="#04B24F" rx="4"/>
  <text x="465" y="1551" font-size="13" font-weight="700" fill="#FFFFFF" text-anchor="middle">doc_hits (NEW)</text>
  <rect x="560" y="1530" width="140" height="32" fill="#FFFFFF" stroke="#1F1A14" stroke-width="2" rx="4"/>
  <text x="630" y="1551" font-size="13" fill="#1F1A14" text-anchor="middle">token *</text>
  <rect x="710" y="1530" width="200" height="32" fill="#FFFFFF" stroke="#1F1A14" stroke-width="2" rx="4"/>
  <text x="810" y="1551" font-size="13" fill="#1F1A14" text-anchor="middle">meta (+refused)</text>
  <rect x="920" y="1530" width="140" height="32" fill="#FFFFFF" stroke="#1F1A14" stroke-width="2" rx="4"/>
  <text x="990" y="1551" font-size="13" fill="#1F1A14" text-anchor="middle">final</text>
  <rect x="1070" y="1530" width="140" height="32" fill="#F61B27" rx="4"/>
  <text x="1140" y="1551" font-size="13" font-weight="700" fill="#FFFFFF" text-anchor="middle">end</text>
  <text x="1230" y="1551" font-size="13" font-weight="700" fill="#1F1A14">→ EventSourceResponse(ping=15)</text>

  <!-- legend -->
  <text x="80" y="1600" font-size="13" font-weight="700" fill="#1F1A14">图例</text>
  <rect x="130" y="1587" width="20" height="20" fill="#044D99"/>
  <text x="160" y="1602" font-size="12" fill="#1F1A14">业务节点</text>
  <rect x="240" y="1587" width="20" height="20" fill="#04B24F"/>
  <text x="270" y="1602" font-size="12" fill="#1F1A14">执行节点（IO）</text>
  <rect x="380" y="1587" width="20" height="20" fill="#F2A03B"/>
  <text x="410" y="1602" font-size="12" fill="#1F1A14">重排 / 过滤</text>
  <rect x="510" y="1587" width="20" height="20" fill="#F61B27"/>
  <text x="540" y="1602" font-size="12" fill="#1F1A14">兜底 / 拒绝 / 短路</text>
  <text x="680" y="1602" font-size="12" fill="#1F1A14" font-style="italic">来源：backend/app/services/agent.py · backend/app/api/v1/chat.py</text>
</svg>